<?xml version="1.0" encoding="UTF-8" standalone="no"?>
<svg
   xmlns:dc="http://purl.org/dc/elements/1.1/"
   xmlns:cc="http://creativecommons.org/ns#"
   xmlns:rdf="http://www.w3.org/1999/02/22-rdf-syntax-ns#"
   xmlns:svg="http://www.w3.org/2000/svg"
   xmlns="http://www.w3.org/2000/svg"
   viewBox="0 0 560 682.66669"
   height="682.66669"
   width="560"
   xml:space="preserve"
   id="svg2"
   version="1.1"><metadata
     id="metadata8"><rdf:RDF><cc:Work
         rdf:about=""><dc:format>image/svg+xml</dc:format><dc:type
           rdf:resource="http://purl.org/dc/dcmitype/StillImage" /></cc:Work></rdf:RDF></metadata><defs
     id="defs6" /><g
     transform="matrix(1.3333333,0,0,-1.3333333,0,682.66667)"
     id="g10"><g
       transform="scale(0.1)"
       id="g12"><path
         id="path14"
         style="fill:#fabc18;fill-opacity:1;fill-rule:nonzero;stroke:none"
         d="m 3100,630 c 55.2,0 100,44.801 100,100 0,55.199 -44.8,100 -100,100 -55.2,0 -100,-44.801 -100,-100 0,-55.199 44.8,-100 100,-100" /><path
         id="path16"
         style="fill:#fabc18;fill-opacity:1;fill-rule:nonzero;stroke:none"
         d="m 1100,830 c -55.2,0 -100,-44.801 -100,-100 0,-55.199 44.8,-100 100,-100 55.2,0 100,44.801 100,100 0,55.199 -44.8,100 -100,100" /><path
         id="path18"
         style="fill:#fabc18;fill-opacity:1;fill-rule:nonzero;stroke:none"
         d="m 1218.17,2808.17 c -0.2,1.09 -0.39,2.17 -0.63,3.24 C 1205.93,2870.1 1200,2930.17 1200,2990 v 300 h 1800 v -300 c 0,-59.78 -5.93,-119.81 -17.54,-178.55 -0.24,-1.08 -0.43,-2.17 -0.63,-3.26 -44.69,-223.07 -168.37,-422.75 -348.47,-562.41 C 2476.9,2124.24 2292.47,2060 2100,2060 c -192.47,0 -376.9,64.24 -533.51,185.89 -35.85,27.74 -69.97,58.43 -101.45,91.26 -126.15,131.42 -211.47,294.23 -246.87,471.02 z M 800,3090 c 0,110.28 89.723,200 200,200 v -300 c 0,-33.34 1.58,-66.74 4.56,-100 H 1000 c -110.277,0 -200,89.72 -200,200 z m 29.313,570.68 C 848.219,3679.59 873.32,3690 900,3690 h 2400 c 55.14,0 100,-44.86 100,-100 0,-26.68 -10.41,-51.79 -29.31,-70.68 C 3351.79,3500.41 3326.68,3490 3300,3490 H 3200 3100 1100 1000 900 c -55.141,0 -100,44.86 -100,100 0,26.68 10.41,51.79 29.313,70.68 z M 1600,4638.61 V 4190 c 0,-55.23 44.77,-100 100,-100 55.23,0 100,44.77 100,100 v 579.37 c 0,0.26 0,0.52 0,0.78 V 4790 c 0,61.96 52.34,130 100,130 h 400 c 47.66,0 100,-68.04 100,-130 v -19.85 c 0,-0.26 0,-0.52 0,-0.78 V 4190 c 0,-55.23 44.77,-100 100,-100 55.23,0 100,44.77 100,100 v 448.61 C 2922.9,4524.34 3156,4232.14 3194.41,3890 H 1005.59 C 1044,4232.14 1277.1,4524.34 1600,4638.61 Z M 3200,2890 h -4.56 c 2.98,33.27 4.56,66.66 4.56,100 v 300 c 110.28,0 200,-89.72 200,-200 0,-110.28 -89.72,-200 -200,-200 z M 3000,1660 v -630 c 0,-55.23 44.77,-100 100,-100 55.23,0 100,44.77 100,100 v 624.08 c 68.24,-8.04 135.09,-24.36 200,-48.83 V 200 h -200 v 230 c 0,55.23 -44.77,100 -100,100 -55.23,0 -100,-44.77 -100,-100 V 200 h -800 v 890 l 542.85,570 z M 4000,730 V 200 H 3600 V 1498.79 C 3844.18,1325.72 4000,1034.18 4000,730 Z m -3800,0 c 0,304.17 155.82,595.71 400,768.78 V 200 H 200 Z M 1457.15,1660 2000,1090 V 200 h -800 v 230 c 0,55.23 -44.77,100 -100,100 -55.23,0 -100,-44.77 -100,-100 V 200 H 800 v 1405.26 c 64.902,24.47 131.758,40.78 200,48.82 V 1030 c 0,-55.23 44.77,-100 100,-100 55.23,0 100,44.77 100,100 v 630 z M 2100,1860 c 175.74,0 345.71,43.32 500,126.25 V 1800 l -500,-525 -500,525 v 186.26 C 1754.31,1903.31 1924.27,1860 2100,1860 Z m -1000,0 c -141.98,0 -280.141,-28.23 -411.199,-83.86 -21.844,-2.44 -41.5,-11.94 -56.77,-26.13 -181.23,-89.42 -335.914,-227.87 -448.48,-402.1 C 63.4727,1162.04 0,948.371 0,730 V 100 C 0,44.7813 44.7695,0 100,0 h 4000 c 55.23,0 100,44.7813 100,100 v 630 c 0,218.371 -63.47,432.04 -183.55,617.9 -112.57,174.24 -267.26,312.69 -448.47,402.1 -15.28,14.19 -34.93,23.7 -56.78,26.13 -131.07,55.64 -269.23,83.87 -411.2,83.87 h -300 v 263.83 c 173.61,148.96 298.42,346.26 358.94,566.17 H 3200 c 220.56,0 400,179.44 400,400 0,104.52 -40.34,199.76 -106.22,271.1 6.29,5.34 12.43,10.9 18.33,16.79 56.68,56.68 87.89,132.01 87.89,212.11 0,131.63 -85.26,243.66 -203.43,283.96 -35.33,459.84 -358.06,852.8 -802.41,975.96 C 2567.83,4987.44 2454.34,5120 2300,5120 h -400 c -154.34,0 -267.83,-132.56 -294.16,-270.08 C 1161.53,4726.77 838.828,4333.88 803.441,3874.1 760.422,3859.51 720.973,3835.18 687.891,3802.11 631.211,3745.43 600,3670.1 600,3590 600,3498.37 641.34,3416.25 706.301,3361.18 640.383,3289.84 600,3194.56 600,3090 c 0,-220.56 179.438,-400 400,-400 h 40.78 c 50.52,-183.57 146.31,-352.1 279.94,-491.31 25.11,-26.18 51.73,-51.12 79.28,-74.78 V 1860 h -300" /></g></g></svg>